G04 #@! TF.FileFunction,Copper,L1,Top,Signal*
%FSLAX46Y46*%
G04 Gerber Fmt 4.6, Leading zero omitted, Abs format (unit mm)*
G04 Created by KiCad (PCBNEW 4.0.7) date 01/05/18 23:13:41*
%MOMM*%
%LPD*%
G01*
G04 APERTURE LIST*
%ADD10C,0.100000*%
%ADD11C,0.800000*%
%ADD12R,0.500000X1.300000*%
%ADD13R,1.300000X0.500000*%
%ADD14R,1.800000X1.450000*%
%ADD15C,1.400000*%
%ADD16R,0.800000X1.000000*%
%ADD17C,1.000000*%
%ADD18C,0.200000*%
%ADD19C,0.400000*%
%ADD20C,0.254000*%
G04 APERTURE END LIST*
D10*
D11*
X135255000Y-126492000D03*
X133985000Y-124460000D03*
X135255000Y-122174000D03*
X138557000Y-105029000D03*
X135001000Y-104394000D03*
X130302000Y-95377000D03*
X140843000Y-94234000D03*
X133477000Y-93218000D03*
X130429000Y-131064000D03*
X131572000Y-130937000D03*
X134366000Y-119634000D03*
X130302000Y-113157000D03*
X130810000Y-101092000D03*
X130810000Y-98806000D03*
X130810000Y-103378000D03*
X135001000Y-101473000D03*
X135128000Y-98679000D03*
X135890000Y-96139000D03*
X132080000Y-94615000D03*
X130556000Y-92964000D03*
X134874000Y-91694000D03*
X137414000Y-94361000D03*
X138684000Y-102870000D03*
X139446000Y-100330000D03*
X136271000Y-106426000D03*
X138557000Y-107569000D03*
X143129000Y-126619000D03*
X135636000Y-124079000D03*
X136652000Y-120142000D03*
X137922000Y-121793000D03*
X133604000Y-120650000D03*
X144272000Y-125730000D03*
X139065000Y-123317000D03*
X137033000Y-125857000D03*
X133096000Y-126492000D03*
X139954000Y-125095000D03*
X139954000Y-126619000D03*
X139446000Y-92710000D03*
X140589000Y-96647000D03*
X140970000Y-91567000D03*
D12*
X132775000Y-118130000D03*
X133525000Y-118130000D03*
X134275000Y-118130000D03*
X135025000Y-118130000D03*
X135775000Y-118130000D03*
X136525000Y-118130000D03*
X137275000Y-118130000D03*
X138025000Y-118130000D03*
X138775000Y-118130000D03*
X139525000Y-118130000D03*
X140275000Y-118130000D03*
D13*
X141475000Y-118630000D03*
X141475000Y-119380000D03*
X141475000Y-120130000D03*
X141475000Y-120880000D03*
X141475000Y-121630000D03*
X141475000Y-122380000D03*
X141475000Y-123130000D03*
X141475000Y-123880000D03*
X141475000Y-124630000D03*
X141475000Y-125380000D03*
X141475000Y-126130000D03*
X141475000Y-126880000D03*
X131575000Y-118630000D03*
X131575000Y-119380000D03*
X131575000Y-120130000D03*
X131575000Y-120880000D03*
X131575000Y-121630000D03*
X131575000Y-122380000D03*
X131575000Y-123130000D03*
X131575000Y-123880000D03*
X131575000Y-124630000D03*
X131575000Y-125380000D03*
X131575000Y-126130000D03*
X131575000Y-126880000D03*
X131575000Y-127630000D03*
X131575000Y-128380000D03*
X131575000Y-129880000D03*
X131575000Y-129130000D03*
D14*
X137541000Y-109269000D03*
X137541000Y-112219000D03*
D15*
X132715000Y-90170000D03*
X128905000Y-107950000D03*
X128905000Y-105410000D03*
X128905000Y-102870000D03*
X128905000Y-92710000D03*
X128905000Y-95250000D03*
X128905000Y-113030000D03*
X128905000Y-115570000D03*
X128905000Y-118110000D03*
X144145000Y-123190000D03*
X144145000Y-120650000D03*
X144145000Y-115570000D03*
X144145000Y-113030000D03*
X144145000Y-110490000D03*
X128905000Y-123190000D03*
X128905000Y-125730000D03*
X142875000Y-90170000D03*
X128905000Y-97790000D03*
X128905000Y-100330000D03*
X144145000Y-95250000D03*
X130175000Y-90170000D03*
X144145000Y-92710000D03*
X144145000Y-97790000D03*
X137795000Y-90170000D03*
X140335000Y-90170000D03*
X144145000Y-100330000D03*
X135255000Y-90170000D03*
X144145000Y-102870000D03*
X144145000Y-107950000D03*
X128905000Y-110490000D03*
X144145000Y-105410000D03*
X128905000Y-120650000D03*
X144145000Y-118110000D03*
X128905000Y-128270000D03*
X128905000Y-130810000D03*
D16*
X136398000Y-97652000D03*
X136398000Y-99452000D03*
X137922000Y-97652000D03*
X137922000Y-99452000D03*
X135763000Y-111622000D03*
X135763000Y-113422000D03*
X135763000Y-109866000D03*
X135763000Y-108066000D03*
D17*
X139700000Y-115940000D03*
D11*
X140208000Y-123825000D03*
X140208000Y-122809000D03*
X134874000Y-116078000D03*
X135628500Y-116875500D03*
X135775000Y-119382900D03*
X134112000Y-97917000D03*
X132588000Y-98933000D03*
X135763000Y-125222000D03*
X142532100Y-102489000D03*
X132829600Y-121731000D03*
X130302000Y-124587000D03*
X130175000Y-127381000D03*
X132852100Y-119412600D03*
X137922000Y-100711000D03*
X136398000Y-100711000D03*
X139646000Y-120365100D03*
X138924900Y-121065500D03*
X140208000Y-121793000D03*
D18*
X135763000Y-109866000D02*
X136944000Y-109866000D01*
X136944000Y-109866000D02*
X137541000Y-109269000D01*
X138775000Y-118130000D02*
X138775000Y-110503000D01*
X138775000Y-110503000D02*
X137541000Y-109269000D01*
X135763000Y-111622000D02*
X136944000Y-111622000D01*
X136944000Y-111622000D02*
X137541000Y-112219000D01*
X138025000Y-118130000D02*
X138025000Y-112703000D01*
X138025000Y-112703000D02*
X137541000Y-112219000D01*
D19*
X139525000Y-116115000D02*
X139700000Y-115940000D01*
X139525000Y-118130000D02*
X139525000Y-116115000D01*
D18*
X144145000Y-123190000D02*
X144145000Y-124333000D01*
X144145000Y-124333000D02*
X142348000Y-126130000D01*
X142348000Y-126130000D02*
X141475000Y-126130000D01*
X144145000Y-120650000D02*
X144145000Y-121539000D01*
X144145000Y-121539000D02*
X143129000Y-122555000D01*
X143129000Y-122555000D02*
X143129000Y-124587000D01*
X143129000Y-124587000D02*
X142336000Y-125380000D01*
X142336000Y-125380000D02*
X141475000Y-125380000D01*
X140208000Y-123825000D02*
X140263000Y-123880000D01*
X140263000Y-123880000D02*
X141475000Y-123880000D01*
X140208000Y-122809000D02*
X140529000Y-123130000D01*
X140529000Y-123130000D02*
X141475000Y-123130000D01*
X141475000Y-121630000D02*
X142425300Y-121630000D01*
X142425300Y-121630000D02*
X142425300Y-119570500D01*
X142425300Y-119570500D02*
X142825600Y-119170200D01*
X142825600Y-119170200D02*
X142825600Y-109269400D01*
X142825600Y-109269400D02*
X144145000Y-107950000D01*
X134874000Y-116078000D02*
X134928900Y-116132900D01*
X134928900Y-116132900D02*
X136228200Y-116132900D01*
X136228200Y-116132900D02*
X137275000Y-117179700D01*
X137275000Y-117179700D02*
X137275000Y-118130000D01*
X136525000Y-118130000D02*
X136525000Y-117179700D01*
X135932700Y-117179700D02*
X135628500Y-116875500D01*
X136525000Y-117179700D02*
X135932700Y-117179700D01*
X135775000Y-118130000D02*
X135775000Y-119382900D01*
X134112000Y-97917000D02*
X134112000Y-116349400D01*
X134112000Y-116349400D02*
X135025000Y-117262400D01*
X135025000Y-117262400D02*
X135025000Y-118130000D01*
X132588000Y-98933000D02*
X132588000Y-116242700D01*
X132588000Y-116242700D02*
X133525000Y-117179700D01*
X133525000Y-117179700D02*
X133525000Y-118130000D01*
X130817000Y-126880000D02*
X130556000Y-126619000D01*
X131575000Y-126880000D02*
X130817000Y-126880000D01*
X130556000Y-126619000D02*
X129794000Y-126619000D01*
X129794000Y-126619000D02*
X128905000Y-125730000D01*
X128905000Y-123190000D02*
X128905000Y-124206000D01*
X128905000Y-124206000D02*
X130175000Y-125476000D01*
X130175000Y-125476000D02*
X130175000Y-125857000D01*
X130175000Y-125857000D02*
X130448000Y-126130000D01*
X130448000Y-126130000D02*
X131575000Y-126130000D01*
X135763000Y-125222000D02*
X135605000Y-125380000D01*
X135605000Y-125380000D02*
X131575000Y-125380000D01*
X142532100Y-102489000D02*
X142540400Y-102480700D01*
X142540400Y-102480700D02*
X142540400Y-99394600D01*
X142540400Y-99394600D02*
X144145000Y-97790000D01*
X130496000Y-123130000D02*
X131575000Y-123130000D01*
X130405000Y-123039000D02*
X130496000Y-123130000D01*
X130405000Y-122500000D02*
X130405000Y-123039000D01*
X129955000Y-122050000D02*
X130405000Y-122500000D01*
X129955000Y-119160000D02*
X129955000Y-122050000D01*
X128905000Y-118110000D02*
X129955000Y-119160000D01*
X130922000Y-122380000D02*
X131575000Y-122380000D01*
X130556000Y-122014000D02*
X130922000Y-122380000D01*
X130556000Y-118237000D02*
X130556000Y-122014000D01*
X128905000Y-116586000D02*
X130556000Y-118237000D01*
X128905000Y-115570000D02*
X128905000Y-116586000D01*
X131575000Y-121630000D02*
X132525300Y-121630000D01*
X132626300Y-121731000D02*
X132525300Y-121630000D01*
X132829600Y-121731000D02*
X132626300Y-121731000D01*
X131575000Y-124630000D02*
X130345000Y-124630000D01*
X130345000Y-124630000D02*
X130302000Y-124587000D01*
X131575000Y-127630000D02*
X130424000Y-127630000D01*
X130424000Y-127630000D02*
X130175000Y-127381000D01*
X137795000Y-90170000D02*
X131826000Y-96139000D01*
X131826000Y-96139000D02*
X131826000Y-116230700D01*
X131826000Y-116230700D02*
X132775000Y-117179700D01*
X132775000Y-117179700D02*
X132775000Y-118130000D01*
X140335000Y-90170000D02*
X133350000Y-97155000D01*
X133350000Y-97155000D02*
X133350000Y-116254700D01*
X133350000Y-116254700D02*
X134275000Y-117179700D01*
X134275000Y-117179700D02*
X134275000Y-118130000D01*
X144132000Y-102883000D02*
X141475000Y-105540000D01*
X141475000Y-105540000D02*
X141475000Y-118630000D01*
X131575000Y-120880000D02*
X132525300Y-120880000D01*
X132852100Y-120553200D02*
X132852100Y-119412600D01*
X132525300Y-120880000D02*
X132852100Y-120553200D01*
X144145000Y-105410000D02*
X142425300Y-107129700D01*
X142425300Y-107129700D02*
X142425300Y-119004400D01*
X142425300Y-119004400D02*
X142049700Y-119380000D01*
X142049700Y-119380000D02*
X141475000Y-119380000D01*
X130230000Y-123880000D02*
X131575000Y-123880000D01*
X129955000Y-123605000D02*
X130230000Y-123880000D01*
X129955000Y-122686000D02*
X129955000Y-123605000D01*
X128905000Y-121636000D02*
X129955000Y-122686000D01*
X128905000Y-120650000D02*
X128905000Y-121636000D01*
X137922000Y-100711000D02*
X137922000Y-99452000D01*
X136398000Y-100711000D02*
X136398000Y-99452000D01*
X141475000Y-120130000D02*
X139881100Y-120130000D01*
X139881100Y-120130000D02*
X139646000Y-120365100D01*
X141475000Y-120880000D02*
X140524700Y-120880000D01*
X140339200Y-121065500D02*
X138924900Y-121065500D01*
X140524700Y-120880000D02*
X140339200Y-121065500D01*
X144145000Y-118110000D02*
X144145000Y-118745000D01*
X144145000Y-118745000D02*
X143129000Y-119761000D01*
X143129000Y-119761000D02*
X143129000Y-121793000D01*
X143129000Y-121793000D02*
X142621000Y-122301000D01*
X142621000Y-122301000D02*
X142621000Y-124333000D01*
X142621000Y-124333000D02*
X142324000Y-124630000D01*
X142324000Y-124630000D02*
X141475000Y-124630000D01*
X140208000Y-121793000D02*
X140795000Y-122380000D01*
X140795000Y-122380000D02*
X141475000Y-122380000D01*
X131575000Y-128380000D02*
X129015000Y-128380000D01*
X129015000Y-128380000D02*
X128905000Y-128270000D01*
X131575000Y-129130000D02*
X130585000Y-129130000D01*
X130585000Y-129130000D02*
X128905000Y-130810000D01*
D20*
G36*
X131722000Y-130005000D02*
X131702000Y-130005000D01*
X131702000Y-130606250D01*
X131860750Y-130765000D01*
X132198000Y-130765000D01*
X132198000Y-131603000D01*
X129705826Y-131603000D01*
X129859867Y-131449228D01*
X130031804Y-131035158D01*
X130032195Y-130586809D01*
X129985790Y-130474500D01*
X130290000Y-130170290D01*
X130290000Y-130256310D01*
X130386673Y-130489699D01*
X130565302Y-130668327D01*
X130798691Y-130765000D01*
X131289250Y-130765000D01*
X131448000Y-130606250D01*
X131448000Y-130005000D01*
X131428000Y-130005000D01*
X131428000Y-129815365D01*
X131722000Y-129815365D01*
X131722000Y-130005000D01*
X131722000Y-130005000D01*
G37*
X131722000Y-130005000D02*
X131702000Y-130005000D01*
X131702000Y-130606250D01*
X131860750Y-130765000D01*
X132198000Y-130765000D01*
X132198000Y-131603000D01*
X129705826Y-131603000D01*
X129859867Y-131449228D01*
X130031804Y-131035158D01*
X130032195Y-130586809D01*
X129985790Y-130474500D01*
X130290000Y-130170290D01*
X130290000Y-130256310D01*
X130386673Y-130489699D01*
X130565302Y-130668327D01*
X130798691Y-130765000D01*
X131289250Y-130765000D01*
X131448000Y-130606250D01*
X131448000Y-130005000D01*
X131428000Y-130005000D01*
X131428000Y-129815365D01*
X131722000Y-129815365D01*
X131722000Y-130005000D01*
G36*
X142235772Y-91124867D02*
X142649842Y-91296804D01*
X143098191Y-91297195D01*
X143383000Y-91179514D01*
X143383000Y-91878242D01*
X143190133Y-92070772D01*
X143018196Y-92484842D01*
X143017805Y-92933191D01*
X143189019Y-93347560D01*
X143383000Y-93541880D01*
X143383000Y-93980000D01*
X143391685Y-94026159D01*
X143418965Y-94068553D01*
X143448589Y-94088794D01*
X143389331Y-94314725D01*
X144145000Y-95070395D01*
X144159142Y-95056252D01*
X144338748Y-95235858D01*
X144324605Y-95250000D01*
X144338748Y-95264142D01*
X144159142Y-95443748D01*
X144145000Y-95429605D01*
X143389331Y-96185275D01*
X143448655Y-96411457D01*
X143421447Y-96428965D01*
X143393006Y-96470590D01*
X143383000Y-96520000D01*
X143383000Y-96958242D01*
X143190133Y-97150772D01*
X143018196Y-97564842D01*
X143017805Y-98013191D01*
X143064210Y-98125500D01*
X142167755Y-99021955D01*
X142053515Y-99192925D01*
X142017494Y-99374019D01*
X142013400Y-99394600D01*
X142013400Y-101838260D01*
X141831412Y-102019930D01*
X141705244Y-102323778D01*
X141704957Y-102652779D01*
X141735367Y-102726376D01*
X141732000Y-102743000D01*
X141732000Y-104537710D01*
X141102355Y-105167355D01*
X140988115Y-105338325D01*
X140988115Y-105338326D01*
X140948000Y-105540000D01*
X140948000Y-117944635D01*
X140825000Y-117944635D01*
X140666763Y-117974409D01*
X140521433Y-118067927D01*
X140423936Y-118210619D01*
X140389635Y-118380000D01*
X140389635Y-118880000D01*
X140414019Y-119009591D01*
X140389635Y-119130000D01*
X140389635Y-119603000D01*
X139967173Y-119603000D01*
X139811222Y-119538244D01*
X139482221Y-119537957D01*
X139178154Y-119663595D01*
X138945312Y-119896030D01*
X138819144Y-120199878D01*
X138819110Y-120238408D01*
X138761121Y-120238357D01*
X138457054Y-120363995D01*
X138224212Y-120596430D01*
X138098044Y-120900278D01*
X138097757Y-121229279D01*
X138223395Y-121533346D01*
X138455830Y-121766188D01*
X138759678Y-121892356D01*
X139088679Y-121892643D01*
X139381018Y-121771851D01*
X139380857Y-121956779D01*
X139506495Y-122260846D01*
X139546445Y-122300866D01*
X139507312Y-122339930D01*
X139381144Y-122643778D01*
X139380857Y-122972779D01*
X139506495Y-123276846D01*
X139546445Y-123316866D01*
X139507312Y-123355930D01*
X139381144Y-123659778D01*
X139380857Y-123988779D01*
X139506495Y-124292846D01*
X139738930Y-124525688D01*
X140042778Y-124651856D01*
X140371779Y-124652143D01*
X140389635Y-124644765D01*
X140389635Y-124880000D01*
X140414019Y-125009591D01*
X140389635Y-125130000D01*
X140389635Y-125630000D01*
X140414019Y-125759591D01*
X140389635Y-125880000D01*
X140389635Y-126167340D01*
X140286673Y-126270301D01*
X140190000Y-126503690D01*
X140190000Y-126596250D01*
X140348750Y-126755000D01*
X140617473Y-126755000D01*
X140655619Y-126781064D01*
X140825000Y-126815365D01*
X142125000Y-126815365D01*
X142283237Y-126785591D01*
X142330776Y-126755000D01*
X142601250Y-126755000D01*
X142760000Y-126596250D01*
X142760000Y-126503690D01*
X142748167Y-126475123D01*
X143874290Y-125349000D01*
X144938000Y-125349000D01*
X144938000Y-127053000D01*
X142649250Y-127053000D01*
X142601250Y-127005000D01*
X141602000Y-127005000D01*
X141602000Y-127027000D01*
X141348000Y-127027000D01*
X141348000Y-127005000D01*
X140348750Y-127005000D01*
X140300750Y-127053000D01*
X132660365Y-127053000D01*
X132660365Y-126630000D01*
X132635981Y-126500409D01*
X132660365Y-126380000D01*
X132660365Y-125907000D01*
X135278269Y-125907000D01*
X135293930Y-125922688D01*
X135597778Y-126048856D01*
X135926779Y-126049143D01*
X136230846Y-125923505D01*
X136463688Y-125691070D01*
X136589856Y-125387222D01*
X136590143Y-125058221D01*
X136464505Y-124754154D01*
X136232070Y-124521312D01*
X135928222Y-124395144D01*
X135599221Y-124394857D01*
X135295154Y-124520495D01*
X135062312Y-124752930D01*
X135020760Y-124853000D01*
X132660365Y-124853000D01*
X132660365Y-124380000D01*
X132635981Y-124250409D01*
X132660365Y-124130000D01*
X132660365Y-123630000D01*
X132635981Y-123500409D01*
X132660365Y-123380000D01*
X132660365Y-122880000D01*
X132635981Y-122750409D01*
X132660365Y-122630000D01*
X132660365Y-122556190D01*
X132664378Y-122557856D01*
X132993379Y-122558143D01*
X133297446Y-122432505D01*
X133530288Y-122200070D01*
X133656456Y-121896222D01*
X133656743Y-121567221D01*
X133531105Y-121263154D01*
X133298670Y-121030312D01*
X133172619Y-120977971D01*
X133224745Y-120925845D01*
X133338985Y-120754875D01*
X133379100Y-120553200D01*
X133379100Y-120055054D01*
X133552788Y-119881670D01*
X133678956Y-119577822D01*
X133679243Y-119248821D01*
X133665419Y-119215365D01*
X133775000Y-119215365D01*
X133904591Y-119190981D01*
X134025000Y-119215365D01*
X134525000Y-119215365D01*
X134654591Y-119190981D01*
X134775000Y-119215365D01*
X134949104Y-119215365D01*
X134948144Y-119217678D01*
X134947857Y-119546679D01*
X135073495Y-119850746D01*
X135305930Y-120083588D01*
X135609778Y-120209756D01*
X135938779Y-120210043D01*
X136242846Y-120084405D01*
X136475688Y-119851970D01*
X136601856Y-119548122D01*
X136602143Y-119219121D01*
X136600591Y-119215365D01*
X136775000Y-119215365D01*
X136904591Y-119190981D01*
X137025000Y-119215365D01*
X137525000Y-119215365D01*
X137654591Y-119190981D01*
X137775000Y-119215365D01*
X138275000Y-119215365D01*
X138404591Y-119190981D01*
X138525000Y-119215365D01*
X139025000Y-119215365D01*
X139154591Y-119190981D01*
X139275000Y-119215365D01*
X139775000Y-119215365D01*
X139933237Y-119185591D01*
X140078567Y-119092073D01*
X140176064Y-118949381D01*
X140210365Y-118780000D01*
X140210365Y-117480000D01*
X140180591Y-117321763D01*
X140152000Y-117277332D01*
X140152000Y-116756253D01*
X140224417Y-116726331D01*
X140485414Y-116465789D01*
X140626839Y-116125201D01*
X140627161Y-115756417D01*
X140486331Y-115415583D01*
X140225789Y-115154586D01*
X139885201Y-115013161D01*
X139516417Y-115012839D01*
X139302000Y-115101434D01*
X139302000Y-110503000D01*
X139261885Y-110301326D01*
X139259373Y-110297567D01*
X139147646Y-110130355D01*
X138876365Y-109859074D01*
X138876365Y-108544000D01*
X138846591Y-108385763D01*
X138753073Y-108240433D01*
X138610381Y-108142936D01*
X138441000Y-108108635D01*
X136641000Y-108108635D01*
X136482763Y-108138409D01*
X136397927Y-108193000D01*
X135890000Y-108193000D01*
X135890000Y-108213000D01*
X135636000Y-108213000D01*
X135636000Y-108193000D01*
X134886750Y-108193000D01*
X134728000Y-108351750D01*
X134728000Y-108692309D01*
X134824673Y-108925698D01*
X135003301Y-109104327D01*
X135020211Y-109111331D01*
X134961936Y-109196619D01*
X134927635Y-109366000D01*
X134927635Y-110366000D01*
X134957409Y-110524237D01*
X135050927Y-110669567D01*
X135160844Y-110744670D01*
X135059433Y-110809927D01*
X134961936Y-110952619D01*
X134927635Y-111122000D01*
X134927635Y-112122000D01*
X134957409Y-112280237D01*
X135019619Y-112376914D01*
X135003301Y-112383673D01*
X134824673Y-112562302D01*
X134728000Y-112795691D01*
X134728000Y-113136250D01*
X134886750Y-113295000D01*
X135636000Y-113295000D01*
X135636000Y-113275000D01*
X135890000Y-113275000D01*
X135890000Y-113295000D01*
X136398348Y-113295000D01*
X136471619Y-113345064D01*
X136641000Y-113379365D01*
X137498000Y-113379365D01*
X137498000Y-115951000D01*
X136791590Y-115951000D01*
X136600845Y-115760255D01*
X136429875Y-115646015D01*
X136228200Y-115605900D01*
X135571258Y-115605900D01*
X135343070Y-115377312D01*
X135039222Y-115251144D01*
X134710221Y-115250857D01*
X134639000Y-115280285D01*
X134639000Y-113707750D01*
X134728000Y-113707750D01*
X134728000Y-114048309D01*
X134824673Y-114281698D01*
X135003301Y-114460327D01*
X135236690Y-114557000D01*
X135477250Y-114557000D01*
X135636000Y-114398250D01*
X135636000Y-113549000D01*
X135890000Y-113549000D01*
X135890000Y-114398250D01*
X136048750Y-114557000D01*
X136289310Y-114557000D01*
X136522699Y-114460327D01*
X136701327Y-114281698D01*
X136798000Y-114048309D01*
X136798000Y-113707750D01*
X136639250Y-113549000D01*
X135890000Y-113549000D01*
X135636000Y-113549000D01*
X134886750Y-113549000D01*
X134728000Y-113707750D01*
X134639000Y-113707750D01*
X134639000Y-107439691D01*
X134728000Y-107439691D01*
X134728000Y-107780250D01*
X134886750Y-107939000D01*
X135636000Y-107939000D01*
X135636000Y-107089750D01*
X135890000Y-107089750D01*
X135890000Y-107939000D01*
X136639250Y-107939000D01*
X136798000Y-107780250D01*
X136798000Y-107439691D01*
X136701327Y-107206302D01*
X136522699Y-107027673D01*
X136289310Y-106931000D01*
X136048750Y-106931000D01*
X135890000Y-107089750D01*
X135636000Y-107089750D01*
X135477250Y-106931000D01*
X135236690Y-106931000D01*
X135003301Y-107027673D01*
X134824673Y-107206302D01*
X134728000Y-107439691D01*
X134639000Y-107439691D01*
X134639000Y-98559454D01*
X134812688Y-98386070D01*
X134938856Y-98082222D01*
X134938982Y-97937750D01*
X135363000Y-97937750D01*
X135363000Y-98278309D01*
X135459673Y-98511698D01*
X135638301Y-98690327D01*
X135655211Y-98697331D01*
X135596936Y-98782619D01*
X135562635Y-98952000D01*
X135562635Y-99952000D01*
X135592409Y-100110237D01*
X135685927Y-100255567D01*
X135690385Y-100258613D01*
X135571144Y-100545778D01*
X135570857Y-100874779D01*
X135696495Y-101178846D01*
X135928930Y-101411688D01*
X136232778Y-101537856D01*
X136561779Y-101538143D01*
X136865846Y-101412505D01*
X137098688Y-101180070D01*
X137159995Y-101032425D01*
X137220495Y-101178846D01*
X137452930Y-101411688D01*
X137756778Y-101537856D01*
X138085779Y-101538143D01*
X138389846Y-101412505D01*
X138622688Y-101180070D01*
X138748856Y-100876222D01*
X138749143Y-100547221D01*
X138629668Y-100258070D01*
X138723064Y-100121381D01*
X138757365Y-99952000D01*
X138757365Y-98952000D01*
X138727591Y-98793763D01*
X138665381Y-98697086D01*
X138681699Y-98690327D01*
X138860327Y-98511698D01*
X138957000Y-98278309D01*
X138957000Y-97937750D01*
X138798250Y-97779000D01*
X138049000Y-97779000D01*
X138049000Y-97799000D01*
X137795000Y-97799000D01*
X137795000Y-97779000D01*
X136525000Y-97779000D01*
X136525000Y-97799000D01*
X136271000Y-97799000D01*
X136271000Y-97779000D01*
X135521750Y-97779000D01*
X135363000Y-97937750D01*
X134938982Y-97937750D01*
X134939143Y-97753221D01*
X134813505Y-97449154D01*
X134747000Y-97382533D01*
X134747000Y-97025691D01*
X135363000Y-97025691D01*
X135363000Y-97366250D01*
X135521750Y-97525000D01*
X136271000Y-97525000D01*
X136271000Y-96675750D01*
X136525000Y-96675750D01*
X136525000Y-97525000D01*
X137795000Y-97525000D01*
X137795000Y-96675750D01*
X138049000Y-96675750D01*
X138049000Y-97525000D01*
X138798250Y-97525000D01*
X138957000Y-97366250D01*
X138957000Y-97025691D01*
X138860327Y-96792302D01*
X138681699Y-96613673D01*
X138448310Y-96517000D01*
X138207750Y-96517000D01*
X138049000Y-96675750D01*
X137795000Y-96675750D01*
X137636250Y-96517000D01*
X137395690Y-96517000D01*
X137162301Y-96613673D01*
X137160000Y-96615974D01*
X137157699Y-96613673D01*
X136924310Y-96517000D01*
X136683750Y-96517000D01*
X136525000Y-96675750D01*
X136271000Y-96675750D01*
X136112250Y-96517000D01*
X135871690Y-96517000D01*
X135638301Y-96613673D01*
X135459673Y-96792302D01*
X135363000Y-97025691D01*
X134747000Y-97025691D01*
X134747000Y-96503290D01*
X136193168Y-95057122D01*
X142797581Y-95057122D01*
X142826336Y-95587440D01*
X142973958Y-95943831D01*
X143209725Y-96005669D01*
X143965395Y-95250000D01*
X143209725Y-94494331D01*
X142973958Y-94556169D01*
X142797581Y-95057122D01*
X136193168Y-95057122D01*
X139999362Y-91250928D01*
X140109842Y-91296804D01*
X140558191Y-91297195D01*
X140972560Y-91125981D01*
X141166880Y-90932000D01*
X142043242Y-90932000D01*
X142235772Y-91124867D01*
X142235772Y-91124867D01*
G37*
X142235772Y-91124867D02*
X142649842Y-91296804D01*
X143098191Y-91297195D01*
X143383000Y-91179514D01*
X143383000Y-91878242D01*
X143190133Y-92070772D01*
X143018196Y-92484842D01*
X143017805Y-92933191D01*
X143189019Y-93347560D01*
X143383000Y-93541880D01*
X143383000Y-93980000D01*
X143391685Y-94026159D01*
X143418965Y-94068553D01*
X143448589Y-94088794D01*
X143389331Y-94314725D01*
X144145000Y-95070395D01*
X144159142Y-95056252D01*
X144338748Y-95235858D01*
X144324605Y-95250000D01*
X144338748Y-95264142D01*
X144159142Y-95443748D01*
X144145000Y-95429605D01*
X143389331Y-96185275D01*
X143448655Y-96411457D01*
X143421447Y-96428965D01*
X143393006Y-96470590D01*
X143383000Y-96520000D01*
X143383000Y-96958242D01*
X143190133Y-97150772D01*
X143018196Y-97564842D01*
X143017805Y-98013191D01*
X143064210Y-98125500D01*
X142167755Y-99021955D01*
X142053515Y-99192925D01*
X142017494Y-99374019D01*
X142013400Y-99394600D01*
X142013400Y-101838260D01*
X141831412Y-102019930D01*
X141705244Y-102323778D01*
X141704957Y-102652779D01*
X141735367Y-102726376D01*
X141732000Y-102743000D01*
X141732000Y-104537710D01*
X141102355Y-105167355D01*
X140988115Y-105338325D01*
X140988115Y-105338326D01*
X140948000Y-105540000D01*
X140948000Y-117944635D01*
X140825000Y-117944635D01*
X140666763Y-117974409D01*
X140521433Y-118067927D01*
X140423936Y-118210619D01*
X140389635Y-118380000D01*
X140389635Y-118880000D01*
X140414019Y-119009591D01*
X140389635Y-119130000D01*
X140389635Y-119603000D01*
X139967173Y-119603000D01*
X139811222Y-119538244D01*
X139482221Y-119537957D01*
X139178154Y-119663595D01*
X138945312Y-119896030D01*
X138819144Y-120199878D01*
X138819110Y-120238408D01*
X138761121Y-120238357D01*
X138457054Y-120363995D01*
X138224212Y-120596430D01*
X138098044Y-120900278D01*
X138097757Y-121229279D01*
X138223395Y-121533346D01*
X138455830Y-121766188D01*
X138759678Y-121892356D01*
X139088679Y-121892643D01*
X139381018Y-121771851D01*
X139380857Y-121956779D01*
X139506495Y-122260846D01*
X139546445Y-122300866D01*
X139507312Y-122339930D01*
X139381144Y-122643778D01*
X139380857Y-122972779D01*
X139506495Y-123276846D01*
X139546445Y-123316866D01*
X139507312Y-123355930D01*
X139381144Y-123659778D01*
X139380857Y-123988779D01*
X139506495Y-124292846D01*
X139738930Y-124525688D01*
X140042778Y-124651856D01*
X140371779Y-124652143D01*
X140389635Y-124644765D01*
X140389635Y-124880000D01*
X140414019Y-125009591D01*
X140389635Y-125130000D01*
X140389635Y-125630000D01*
X140414019Y-125759591D01*
X140389635Y-125880000D01*
X140389635Y-126167340D01*
X140286673Y-126270301D01*
X140190000Y-126503690D01*
X140190000Y-126596250D01*
X140348750Y-126755000D01*
X140617473Y-126755000D01*
X140655619Y-126781064D01*
X140825000Y-126815365D01*
X142125000Y-126815365D01*
X142283237Y-126785591D01*
X142330776Y-126755000D01*
X142601250Y-126755000D01*
X142760000Y-126596250D01*
X142760000Y-126503690D01*
X142748167Y-126475123D01*
X143874290Y-125349000D01*
X144938000Y-125349000D01*
X144938000Y-127053000D01*
X142649250Y-127053000D01*
X142601250Y-127005000D01*
X141602000Y-127005000D01*
X141602000Y-127027000D01*
X141348000Y-127027000D01*
X141348000Y-127005000D01*
X140348750Y-127005000D01*
X140300750Y-127053000D01*
X132660365Y-127053000D01*
X132660365Y-126630000D01*
X132635981Y-126500409D01*
X132660365Y-126380000D01*
X132660365Y-125907000D01*
X135278269Y-125907000D01*
X135293930Y-125922688D01*
X135597778Y-126048856D01*
X135926779Y-126049143D01*
X136230846Y-125923505D01*
X136463688Y-125691070D01*
X136589856Y-125387222D01*
X136590143Y-125058221D01*
X136464505Y-124754154D01*
X136232070Y-124521312D01*
X135928222Y-124395144D01*
X135599221Y-124394857D01*
X135295154Y-124520495D01*
X135062312Y-124752930D01*
X135020760Y-124853000D01*
X132660365Y-124853000D01*
X132660365Y-124380000D01*
X132635981Y-124250409D01*
X132660365Y-124130000D01*
X132660365Y-123630000D01*
X132635981Y-123500409D01*
X132660365Y-123380000D01*
X132660365Y-122880000D01*
X132635981Y-122750409D01*
X132660365Y-122630000D01*
X132660365Y-122556190D01*
X132664378Y-122557856D01*
X132993379Y-122558143D01*
X133297446Y-122432505D01*
X133530288Y-122200070D01*
X133656456Y-121896222D01*
X133656743Y-121567221D01*
X133531105Y-121263154D01*
X133298670Y-121030312D01*
X133172619Y-120977971D01*
X133224745Y-120925845D01*
X133338985Y-120754875D01*
X133379100Y-120553200D01*
X133379100Y-120055054D01*
X133552788Y-119881670D01*
X133678956Y-119577822D01*
X133679243Y-119248821D01*
X133665419Y-119215365D01*
X133775000Y-119215365D01*
X133904591Y-119190981D01*
X134025000Y-119215365D01*
X134525000Y-119215365D01*
X134654591Y-119190981D01*
X134775000Y-119215365D01*
X134949104Y-119215365D01*
X134948144Y-119217678D01*
X134947857Y-119546679D01*
X135073495Y-119850746D01*
X135305930Y-120083588D01*
X135609778Y-120209756D01*
X135938779Y-120210043D01*
X136242846Y-120084405D01*
X136475688Y-119851970D01*
X136601856Y-119548122D01*
X136602143Y-119219121D01*
X136600591Y-119215365D01*
X136775000Y-119215365D01*
X136904591Y-119190981D01*
X137025000Y-119215365D01*
X137525000Y-119215365D01*
X137654591Y-119190981D01*
X137775000Y-119215365D01*
X138275000Y-119215365D01*
X138404591Y-119190981D01*
X138525000Y-119215365D01*
X139025000Y-119215365D01*
X139154591Y-119190981D01*
X139275000Y-119215365D01*
X139775000Y-119215365D01*
X139933237Y-119185591D01*
X140078567Y-119092073D01*
X140176064Y-118949381D01*
X140210365Y-118780000D01*
X140210365Y-117480000D01*
X140180591Y-117321763D01*
X140152000Y-117277332D01*
X140152000Y-116756253D01*
X140224417Y-116726331D01*
X140485414Y-116465789D01*
X140626839Y-116125201D01*
X140627161Y-115756417D01*
X140486331Y-115415583D01*
X140225789Y-115154586D01*
X139885201Y-115013161D01*
X139516417Y-115012839D01*
X139302000Y-115101434D01*
X139302000Y-110503000D01*
X139261885Y-110301326D01*
X139259373Y-110297567D01*
X139147646Y-110130355D01*
X138876365Y-109859074D01*
X138876365Y-108544000D01*
X138846591Y-108385763D01*
X138753073Y-108240433D01*
X138610381Y-108142936D01*
X138441000Y-108108635D01*
X136641000Y-108108635D01*
X136482763Y-108138409D01*
X136397927Y-108193000D01*
X135890000Y-108193000D01*
X135890000Y-108213000D01*
X135636000Y-108213000D01*
X135636000Y-108193000D01*
X134886750Y-108193000D01*
X134728000Y-108351750D01*
X134728000Y-108692309D01*
X134824673Y-108925698D01*
X135003301Y-109104327D01*
X135020211Y-109111331D01*
X134961936Y-109196619D01*
X134927635Y-109366000D01*
X134927635Y-110366000D01*
X134957409Y-110524237D01*
X135050927Y-110669567D01*
X135160844Y-110744670D01*
X135059433Y-110809927D01*
X134961936Y-110952619D01*
X134927635Y-111122000D01*
X134927635Y-112122000D01*
X134957409Y-112280237D01*
X135019619Y-112376914D01*
X135003301Y-112383673D01*
X134824673Y-112562302D01*
X134728000Y-112795691D01*
X134728000Y-113136250D01*
X134886750Y-113295000D01*
X135636000Y-113295000D01*
X135636000Y-113275000D01*
X135890000Y-113275000D01*
X135890000Y-113295000D01*
X136398348Y-113295000D01*
X136471619Y-113345064D01*
X136641000Y-113379365D01*
X137498000Y-113379365D01*
X137498000Y-115951000D01*
X136791590Y-115951000D01*
X136600845Y-115760255D01*
X136429875Y-115646015D01*
X136228200Y-115605900D01*
X135571258Y-115605900D01*
X135343070Y-115377312D01*
X135039222Y-115251144D01*
X134710221Y-115250857D01*
X134639000Y-115280285D01*
X134639000Y-113707750D01*
X134728000Y-113707750D01*
X134728000Y-114048309D01*
X134824673Y-114281698D01*
X135003301Y-114460327D01*
X135236690Y-114557000D01*
X135477250Y-114557000D01*
X135636000Y-114398250D01*
X135636000Y-113549000D01*
X135890000Y-113549000D01*
X135890000Y-114398250D01*
X136048750Y-114557000D01*
X136289310Y-114557000D01*
X136522699Y-114460327D01*
X136701327Y-114281698D01*
X136798000Y-114048309D01*
X136798000Y-113707750D01*
X136639250Y-113549000D01*
X135890000Y-113549000D01*
X135636000Y-113549000D01*
X134886750Y-113549000D01*
X134728000Y-113707750D01*
X134639000Y-113707750D01*
X134639000Y-107439691D01*
X134728000Y-107439691D01*
X134728000Y-107780250D01*
X134886750Y-107939000D01*
X135636000Y-107939000D01*
X135636000Y-107089750D01*
X135890000Y-107089750D01*
X135890000Y-107939000D01*
X136639250Y-107939000D01*
X136798000Y-107780250D01*
X136798000Y-107439691D01*
X136701327Y-107206302D01*
X136522699Y-107027673D01*
X136289310Y-106931000D01*
X136048750Y-106931000D01*
X135890000Y-107089750D01*
X135636000Y-107089750D01*
X135477250Y-106931000D01*
X135236690Y-106931000D01*
X135003301Y-107027673D01*
X134824673Y-107206302D01*
X134728000Y-107439691D01*
X134639000Y-107439691D01*
X134639000Y-98559454D01*
X134812688Y-98386070D01*
X134938856Y-98082222D01*
X134938982Y-97937750D01*
X135363000Y-97937750D01*
X135363000Y-98278309D01*
X135459673Y-98511698D01*
X135638301Y-98690327D01*
X135655211Y-98697331D01*
X135596936Y-98782619D01*
X135562635Y-98952000D01*
X135562635Y-99952000D01*
X135592409Y-100110237D01*
X135685927Y-100255567D01*
X135690385Y-100258613D01*
X135571144Y-100545778D01*
X135570857Y-100874779D01*
X135696495Y-101178846D01*
X135928930Y-101411688D01*
X136232778Y-101537856D01*
X136561779Y-101538143D01*
X136865846Y-101412505D01*
X137098688Y-101180070D01*
X137159995Y-101032425D01*
X137220495Y-101178846D01*
X137452930Y-101411688D01*
X137756778Y-101537856D01*
X138085779Y-101538143D01*
X138389846Y-101412505D01*
X138622688Y-101180070D01*
X138748856Y-100876222D01*
X138749143Y-100547221D01*
X138629668Y-100258070D01*
X138723064Y-100121381D01*
X138757365Y-99952000D01*
X138757365Y-98952000D01*
X138727591Y-98793763D01*
X138665381Y-98697086D01*
X138681699Y-98690327D01*
X138860327Y-98511698D01*
X138957000Y-98278309D01*
X138957000Y-97937750D01*
X138798250Y-97779000D01*
X138049000Y-97779000D01*
X138049000Y-97799000D01*
X137795000Y-97799000D01*
X137795000Y-97779000D01*
X136525000Y-97779000D01*
X136525000Y-97799000D01*
X136271000Y-97799000D01*
X136271000Y-97779000D01*
X135521750Y-97779000D01*
X135363000Y-97937750D01*
X134938982Y-97937750D01*
X134939143Y-97753221D01*
X134813505Y-97449154D01*
X134747000Y-97382533D01*
X134747000Y-97025691D01*
X135363000Y-97025691D01*
X135363000Y-97366250D01*
X135521750Y-97525000D01*
X136271000Y-97525000D01*
X136271000Y-96675750D01*
X136525000Y-96675750D01*
X136525000Y-97525000D01*
X137795000Y-97525000D01*
X137795000Y-96675750D01*
X138049000Y-96675750D01*
X138049000Y-97525000D01*
X138798250Y-97525000D01*
X138957000Y-97366250D01*
X138957000Y-97025691D01*
X138860327Y-96792302D01*
X138681699Y-96613673D01*
X138448310Y-96517000D01*
X138207750Y-96517000D01*
X138049000Y-96675750D01*
X137795000Y-96675750D01*
X137636250Y-96517000D01*
X137395690Y-96517000D01*
X137162301Y-96613673D01*
X137160000Y-96615974D01*
X137157699Y-96613673D01*
X136924310Y-96517000D01*
X136683750Y-96517000D01*
X136525000Y-96675750D01*
X136271000Y-96675750D01*
X136112250Y-96517000D01*
X135871690Y-96517000D01*
X135638301Y-96613673D01*
X135459673Y-96792302D01*
X135363000Y-97025691D01*
X134747000Y-97025691D01*
X134747000Y-96503290D01*
X136193168Y-95057122D01*
X142797581Y-95057122D01*
X142826336Y-95587440D01*
X142973958Y-95943831D01*
X143209725Y-96005669D01*
X143965395Y-95250000D01*
X143209725Y-94494331D01*
X142973958Y-94556169D01*
X142797581Y-95057122D01*
X136193168Y-95057122D01*
X139999362Y-91250928D01*
X140109842Y-91296804D01*
X140558191Y-91297195D01*
X140972560Y-91125981D01*
X141166880Y-90932000D01*
X142043242Y-90932000D01*
X142235772Y-91124867D01*
G36*
X132908748Y-90155858D02*
X132894605Y-90170000D01*
X133650275Y-90925669D01*
X133876457Y-90866345D01*
X133893965Y-90893553D01*
X133935590Y-90921994D01*
X133985000Y-90932000D01*
X134423242Y-90932000D01*
X134615772Y-91124867D01*
X135029842Y-91296804D01*
X135382000Y-91297111D01*
X135382000Y-91837710D01*
X131453355Y-95766355D01*
X131339115Y-95937325D01*
X131322534Y-96020685D01*
X131299000Y-96139000D01*
X131299000Y-116230700D01*
X131339115Y-116432375D01*
X131453355Y-116603345D01*
X132138830Y-117288821D01*
X132123936Y-117310619D01*
X132089635Y-117480000D01*
X132089635Y-117745000D01*
X131860750Y-117745000D01*
X131702000Y-117903750D01*
X131702000Y-118505000D01*
X131722000Y-118505000D01*
X131722000Y-118694635D01*
X131428000Y-118694635D01*
X131428000Y-118505000D01*
X131448000Y-118505000D01*
X131448000Y-117903750D01*
X131289250Y-117745000D01*
X130809291Y-117745000D01*
X129667000Y-116602710D01*
X129667000Y-116401758D01*
X129859867Y-116209228D01*
X130031804Y-115795158D01*
X130032195Y-115346809D01*
X129860981Y-114932440D01*
X129667000Y-114738120D01*
X129667000Y-113861758D01*
X129859867Y-113669228D01*
X130031804Y-113255158D01*
X130032195Y-112806809D01*
X129860981Y-112392440D01*
X129667000Y-112198120D01*
X129667000Y-111321758D01*
X129859867Y-111129228D01*
X130031804Y-110715158D01*
X130032195Y-110266809D01*
X129860981Y-109852440D01*
X129667000Y-109658120D01*
X129667000Y-108781758D01*
X129859867Y-108589228D01*
X130031804Y-108175158D01*
X130032195Y-107726809D01*
X129860981Y-107312440D01*
X129667000Y-107118120D01*
X129667000Y-106241758D01*
X129859867Y-106049228D01*
X130031804Y-105635158D01*
X130032195Y-105186809D01*
X129860981Y-104772440D01*
X129667000Y-104578120D01*
X129667000Y-103701758D01*
X129859867Y-103509228D01*
X130031804Y-103095158D01*
X130032195Y-102646809D01*
X129860981Y-102232440D01*
X129667000Y-102038120D01*
X129667000Y-101600000D01*
X129658315Y-101553841D01*
X129631035Y-101511447D01*
X129601411Y-101491206D01*
X129660669Y-101265275D01*
X128905000Y-100509605D01*
X128890858Y-100523748D01*
X128711252Y-100344142D01*
X128725395Y-100330000D01*
X129084605Y-100330000D01*
X129840275Y-101085669D01*
X130076042Y-101023831D01*
X130252419Y-100522878D01*
X130223664Y-99992560D01*
X130076042Y-99636169D01*
X129840275Y-99574331D01*
X129084605Y-100330000D01*
X128725395Y-100330000D01*
X128711252Y-100315858D01*
X128890858Y-100136252D01*
X128905000Y-100150395D01*
X129660669Y-99394725D01*
X129598831Y-99158958D01*
X129340555Y-99068023D01*
X129598831Y-98961042D01*
X129660669Y-98725275D01*
X128905000Y-97969605D01*
X128890858Y-97983748D01*
X128711252Y-97804142D01*
X128725395Y-97790000D01*
X129084605Y-97790000D01*
X129840275Y-98545669D01*
X130076042Y-98483831D01*
X130252419Y-97982878D01*
X130223664Y-97452560D01*
X130076042Y-97096169D01*
X129840275Y-97034331D01*
X129084605Y-97790000D01*
X128725395Y-97790000D01*
X128711252Y-97775858D01*
X128890858Y-97596252D01*
X128905000Y-97610395D01*
X129660669Y-96854725D01*
X129601345Y-96628543D01*
X129628553Y-96611035D01*
X129656994Y-96569410D01*
X129667000Y-96520000D01*
X129667000Y-96081758D01*
X129859867Y-95889228D01*
X130031804Y-95475158D01*
X130032195Y-95026809D01*
X129860981Y-94612440D01*
X129667000Y-94418120D01*
X129667000Y-93541758D01*
X129859867Y-93349228D01*
X130031804Y-92935158D01*
X130032195Y-92486809D01*
X129860981Y-92072440D01*
X129544228Y-91755133D01*
X129130158Y-91583196D01*
X129032000Y-91583110D01*
X129032000Y-91105275D01*
X129419331Y-91105275D01*
X129481169Y-91341042D01*
X129982122Y-91517419D01*
X130512440Y-91488664D01*
X130868831Y-91341042D01*
X130930669Y-91105275D01*
X131959331Y-91105275D01*
X132021169Y-91341042D01*
X132522122Y-91517419D01*
X133052440Y-91488664D01*
X133408831Y-91341042D01*
X133470669Y-91105275D01*
X132715000Y-90349605D01*
X131959331Y-91105275D01*
X130930669Y-91105275D01*
X130175000Y-90349605D01*
X129419331Y-91105275D01*
X129032000Y-91105275D01*
X129032000Y-90871186D01*
X129239725Y-90925669D01*
X129995395Y-90170000D01*
X129981252Y-90155858D01*
X130160858Y-89976252D01*
X130175000Y-89990395D01*
X130189142Y-89976252D01*
X130368748Y-90155858D01*
X130354605Y-90170000D01*
X131110275Y-90925669D01*
X131346042Y-90863831D01*
X131436977Y-90605555D01*
X131543958Y-90863831D01*
X131779725Y-90925669D01*
X132535395Y-90170000D01*
X132521252Y-90155858D01*
X132700858Y-89976252D01*
X132715000Y-89990395D01*
X132729142Y-89976252D01*
X132908748Y-90155858D01*
X132908748Y-90155858D01*
G37*
X132908748Y-90155858D02*
X132894605Y-90170000D01*
X133650275Y-90925669D01*
X133876457Y-90866345D01*
X133893965Y-90893553D01*
X133935590Y-90921994D01*
X133985000Y-90932000D01*
X134423242Y-90932000D01*
X134615772Y-91124867D01*
X135029842Y-91296804D01*
X135382000Y-91297111D01*
X135382000Y-91837710D01*
X131453355Y-95766355D01*
X131339115Y-95937325D01*
X131322534Y-96020685D01*
X131299000Y-96139000D01*
X131299000Y-116230700D01*
X131339115Y-116432375D01*
X131453355Y-116603345D01*
X132138830Y-117288821D01*
X132123936Y-117310619D01*
X132089635Y-117480000D01*
X132089635Y-117745000D01*
X131860750Y-117745000D01*
X131702000Y-117903750D01*
X131702000Y-118505000D01*
X131722000Y-118505000D01*
X131722000Y-118694635D01*
X131428000Y-118694635D01*
X131428000Y-118505000D01*
X131448000Y-118505000D01*
X131448000Y-117903750D01*
X131289250Y-117745000D01*
X130809291Y-117745000D01*
X129667000Y-116602710D01*
X129667000Y-116401758D01*
X129859867Y-116209228D01*
X130031804Y-115795158D01*
X130032195Y-115346809D01*
X129860981Y-114932440D01*
X129667000Y-114738120D01*
X129667000Y-113861758D01*
X129859867Y-113669228D01*
X130031804Y-113255158D01*
X130032195Y-112806809D01*
X129860981Y-112392440D01*
X129667000Y-112198120D01*
X129667000Y-111321758D01*
X129859867Y-111129228D01*
X130031804Y-110715158D01*
X130032195Y-110266809D01*
X129860981Y-109852440D01*
X129667000Y-109658120D01*
X129667000Y-108781758D01*
X129859867Y-108589228D01*
X130031804Y-108175158D01*
X130032195Y-107726809D01*
X129860981Y-107312440D01*
X129667000Y-107118120D01*
X129667000Y-106241758D01*
X129859867Y-106049228D01*
X130031804Y-105635158D01*
X130032195Y-105186809D01*
X129860981Y-104772440D01*
X129667000Y-104578120D01*
X129667000Y-103701758D01*
X129859867Y-103509228D01*
X130031804Y-103095158D01*
X130032195Y-102646809D01*
X129860981Y-102232440D01*
X129667000Y-102038120D01*
X129667000Y-101600000D01*
X129658315Y-101553841D01*
X129631035Y-101511447D01*
X129601411Y-101491206D01*
X129660669Y-101265275D01*
X128905000Y-100509605D01*
X128890858Y-100523748D01*
X128711252Y-100344142D01*
X128725395Y-100330000D01*
X129084605Y-100330000D01*
X129840275Y-101085669D01*
X130076042Y-101023831D01*
X130252419Y-100522878D01*
X130223664Y-99992560D01*
X130076042Y-99636169D01*
X129840275Y-99574331D01*
X129084605Y-100330000D01*
X128725395Y-100330000D01*
X128711252Y-100315858D01*
X128890858Y-100136252D01*
X128905000Y-100150395D01*
X129660669Y-99394725D01*
X129598831Y-99158958D01*
X129340555Y-99068023D01*
X129598831Y-98961042D01*
X129660669Y-98725275D01*
X128905000Y-97969605D01*
X128890858Y-97983748D01*
X128711252Y-97804142D01*
X128725395Y-97790000D01*
X129084605Y-97790000D01*
X129840275Y-98545669D01*
X130076042Y-98483831D01*
X130252419Y-97982878D01*
X130223664Y-97452560D01*
X130076042Y-97096169D01*
X129840275Y-97034331D01*
X129084605Y-97790000D01*
X128725395Y-97790000D01*
X128711252Y-97775858D01*
X128890858Y-97596252D01*
X128905000Y-97610395D01*
X129660669Y-96854725D01*
X129601345Y-96628543D01*
X129628553Y-96611035D01*
X129656994Y-96569410D01*
X129667000Y-96520000D01*
X129667000Y-96081758D01*
X129859867Y-95889228D01*
X130031804Y-95475158D01*
X130032195Y-95026809D01*
X129860981Y-94612440D01*
X129667000Y-94418120D01*
X129667000Y-93541758D01*
X129859867Y-93349228D01*
X130031804Y-92935158D01*
X130032195Y-92486809D01*
X129860981Y-92072440D01*
X129544228Y-91755133D01*
X129130158Y-91583196D01*
X129032000Y-91583110D01*
X129032000Y-91105275D01*
X129419331Y-91105275D01*
X129481169Y-91341042D01*
X129982122Y-91517419D01*
X130512440Y-91488664D01*
X130868831Y-91341042D01*
X130930669Y-91105275D01*
X131959331Y-91105275D01*
X132021169Y-91341042D01*
X132522122Y-91517419D01*
X133052440Y-91488664D01*
X133408831Y-91341042D01*
X133470669Y-91105275D01*
X132715000Y-90349605D01*
X131959331Y-91105275D01*
X130930669Y-91105275D01*
X130175000Y-90349605D01*
X129419331Y-91105275D01*
X129032000Y-91105275D01*
X129032000Y-90871186D01*
X129239725Y-90925669D01*
X129995395Y-90170000D01*
X129981252Y-90155858D01*
X130160858Y-89976252D01*
X130175000Y-89990395D01*
X130189142Y-89976252D01*
X130368748Y-90155858D01*
X130354605Y-90170000D01*
X131110275Y-90925669D01*
X131346042Y-90863831D01*
X131436977Y-90605555D01*
X131543958Y-90863831D01*
X131779725Y-90925669D01*
X132535395Y-90170000D01*
X132521252Y-90155858D01*
X132700858Y-89976252D01*
X132715000Y-89990395D01*
X132729142Y-89976252D01*
X132908748Y-90155858D01*
M02*
