G04 #@! TF.FileFunction,Soldermask,Top*
%FSLAX46Y46*%
G04 Gerber Fmt 4.6, Leading zero omitted, Abs format (unit mm)*
G04 Created by KiCad (PCBNEW 4.0.7) date 01/05/18 23:13:41*
%MOMM*%
%LPD*%
G01*
G04 APERTURE LIST*
%ADD10C,0.100000*%
%ADD11R,0.700000X1.500000*%
%ADD12R,1.500000X0.700000*%
%ADD13R,2.000000X1.650000*%
%ADD14C,1.600000*%
%ADD15R,1.000000X1.200000*%
G04 APERTURE END LIST*
D10*
D11*
X132775000Y-118130000D03*
X133525000Y-118130000D03*
X134275000Y-118130000D03*
X135025000Y-118130000D03*
X135775000Y-118130000D03*
X136525000Y-118130000D03*
X137275000Y-118130000D03*
X138025000Y-118130000D03*
X138775000Y-118130000D03*
X139525000Y-118130000D03*
X140275000Y-118130000D03*
D12*
X141475000Y-118630000D03*
X141475000Y-119380000D03*
X141475000Y-120130000D03*
X141475000Y-120880000D03*
X141475000Y-121630000D03*
X141475000Y-122380000D03*
X141475000Y-123130000D03*
X141475000Y-123880000D03*
X141475000Y-124630000D03*
X141475000Y-125380000D03*
X141475000Y-126130000D03*
X141475000Y-126880000D03*
X131575000Y-118630000D03*
X131575000Y-119380000D03*
X131575000Y-120130000D03*
X131575000Y-120880000D03*
X131575000Y-121630000D03*
X131575000Y-122380000D03*
X131575000Y-123130000D03*
X131575000Y-123880000D03*
X131575000Y-124630000D03*
X131575000Y-125380000D03*
X131575000Y-126130000D03*
X131575000Y-126880000D03*
X131575000Y-127630000D03*
X131575000Y-128380000D03*
X131575000Y-129880000D03*
X131575000Y-129130000D03*
D13*
X137541000Y-109269000D03*
X137541000Y-112219000D03*
D14*
X132715000Y-90170000D03*
X128905000Y-107950000D03*
X128905000Y-105410000D03*
X128905000Y-102870000D03*
X128905000Y-92710000D03*
X128905000Y-95250000D03*
X128905000Y-113030000D03*
X128905000Y-115570000D03*
X128905000Y-118110000D03*
X144145000Y-123190000D03*
X144145000Y-120650000D03*
X144145000Y-115570000D03*
X144145000Y-113030000D03*
X144145000Y-110490000D03*
X128905000Y-123190000D03*
X128905000Y-125730000D03*
X142875000Y-90170000D03*
X128905000Y-97790000D03*
X128905000Y-100330000D03*
X144145000Y-95250000D03*
X130175000Y-90170000D03*
X144145000Y-92710000D03*
X144145000Y-97790000D03*
X137795000Y-90170000D03*
X140335000Y-90170000D03*
X144145000Y-100330000D03*
X135255000Y-90170000D03*
X144145000Y-102870000D03*
X144145000Y-107950000D03*
X128905000Y-110490000D03*
X144145000Y-105410000D03*
X128905000Y-120650000D03*
X144145000Y-118110000D03*
X128905000Y-128270000D03*
X128905000Y-130810000D03*
D15*
X136398000Y-97652000D03*
X136398000Y-99452000D03*
X137922000Y-97652000D03*
X137922000Y-99452000D03*
X135763000Y-111622000D03*
X135763000Y-113422000D03*
X135763000Y-109866000D03*
X135763000Y-108066000D03*
M02*
