G04 #@! TF.FileFunction,Soldermask,Bot*
%FSLAX46Y46*%
G04 Gerber Fmt 4.6, Leading zero omitted, Abs format (unit mm)*
G04 Created by KiCad (PCBNEW 4.0.7) date 01/05/18 23:13:41*
%MOMM*%
%LPD*%
G01*
G04 APERTURE LIST*
%ADD10C,0.100000*%
%ADD11R,1.500000X1.150000*%
%ADD12C,1.600000*%
%ADD13C,2.000000*%
%ADD14R,1.000000X1.200000*%
%ADD15R,1.200000X1.000000*%
G04 APERTURE END LIST*
D10*
D11*
X138433000Y-96139000D03*
X141983000Y-96139000D03*
D12*
X132715000Y-90170000D03*
X128905000Y-107950000D03*
X128905000Y-105410000D03*
X128905000Y-102870000D03*
X128905000Y-92710000D03*
X128905000Y-95250000D03*
X128905000Y-113030000D03*
X128905000Y-115570000D03*
X128905000Y-118110000D03*
X144145000Y-123190000D03*
X144145000Y-120650000D03*
X144145000Y-115570000D03*
X144145000Y-113030000D03*
X144145000Y-110490000D03*
X128905000Y-123190000D03*
X128905000Y-125730000D03*
X142875000Y-90170000D03*
X128905000Y-97790000D03*
X128905000Y-100330000D03*
X144145000Y-95250000D03*
X130175000Y-90170000D03*
X144145000Y-92710000D03*
X144145000Y-97790000D03*
X137795000Y-90170000D03*
X140335000Y-90170000D03*
X144145000Y-100330000D03*
X135255000Y-90170000D03*
X144145000Y-102870000D03*
X144145000Y-107950000D03*
X128905000Y-110490000D03*
X144145000Y-105410000D03*
X128905000Y-120650000D03*
X144145000Y-118110000D03*
X128905000Y-128270000D03*
X128905000Y-130810000D03*
D13*
X131318000Y-122047000D03*
X132207000Y-124587000D03*
D14*
X139700000Y-115940000D03*
X139700000Y-117740000D03*
X141986000Y-94372000D03*
X141986000Y-92572000D03*
D15*
X140197000Y-97790000D03*
X141997000Y-97790000D03*
D14*
X136271000Y-101970000D03*
X136271000Y-103770000D03*
X137668000Y-101970000D03*
X137668000Y-103770000D03*
M02*
