M48
;DRILL file {KiCad 4.0.7} date 01/05/18 23:13:54
;FORMAT={3:3/ absolute / metric / suppress trailing zeros}
FMAT,2
METRIC,LZ
T1C0.400
T2C0.800
%
G90
G05
M71
T1
X130175Y-127381
X130302Y-095377
X130302Y-113157
X130302Y-124587
X130429Y-131064
X130556Y-092964
X13081Y-098806
X13081Y-101092
X13081Y-103378
X131572Y-130937
X13208Y-094615
X132588Y-098933
X13283Y-121731
X132852Y-119413
X133096Y-126492
X133477Y-093218
X133604Y-12065
X133985Y-12446
X134112Y-097917
X134366Y-119634
X134874Y-091694
X134874Y-116078
X135001Y-101473
X135001Y-104394
X135128Y-098679
X135255Y-122174
X135255Y-126492
X135629Y-116876
X135636Y-124079
X135763Y-125222
X135775Y-119383
X13589Y-096139
X136271Y-106426
X136398Y-100711
X136652Y-120142
X137033Y-125857
X137414Y-094361
X137922Y-100711
X137922Y-121793
X138557Y-105029
X138557Y-107569
X138684Y-10287
X138925Y-121066
X139065Y-123317
X139446Y-09271
X139446Y-10033
X139646Y-120365
X1397Y-11594
X139954Y-125095
X139954Y-126619
X140208Y-121793
X140208Y-122809
X140208Y-123825
X140589Y-096647
X140843Y-094234
X14097Y-091567
X142532Y-102489
X143129Y-126619
X144272Y-12573
T2
X128905Y-09271
X128905Y-09525
X128905Y-09779
X128905Y-10033
X128905Y-10287
X128905Y-10541
X128905Y-10795
X128905Y-11049
X128905Y-11303
X128905Y-11557
X128905Y-11811
X128905Y-12065
X128905Y-12319
X128905Y-12573
X128905Y-12827
X128905Y-13081
X130175Y-09017
X132715Y-09017
X135255Y-09017
X137795Y-09017
X140335Y-09017
X142875Y-09017
X144145Y-09271
X144145Y-09525
X144145Y-09779
X144145Y-10033
X144145Y-10287
X144145Y-10541
X144145Y-10795
X144145Y-11049
X144145Y-11303
X144145Y-11557
X144145Y-11811
X144145Y-12065
X144145Y-12319
T0
M30
